<svg width="40" height="40" viewBox="0 0 40 40" fill="none" xmlns="http://www.w3.org/2000/svg">
<path d="M10.8623 12.6444L19.1961 4.31055C14.9546 5.08367 11.6354 8.40289 10.8623 12.6444Z" fill="white"/>
<path d="M10.6895 29.6554C10.6959 35.366 15.3237 39.9938 21.0342 40.0002H23.7928C29.5034 39.9938 34.1312 35.366 34.1377 29.6554V19.3105H25.0742C24.7645 20.5273 23.669 21.3789 22.4135 21.3789C21.158 21.3789 20.0625 20.5273 19.7528 19.3105H10.6895V29.6554Z" fill="white"/>
<path d="M19.6548 15.457L17.1816 17.9301H19.6548V15.457Z" fill="white"/>
<path d="M21.0342 13.1039V18.6212C21.0342 19.383 21.6518 20.0005 22.4135 20.0005C23.1753 20.0005 23.7928 19.383 23.7928 18.6212V13.1039C23.7928 12.3421 23.1753 11.7246 22.4135 11.7246C21.6518 11.7246 21.0342 12.3421 21.0342 13.1039Z" fill="white"/>
<path d="M10.6895 17.6463L21.7239 6.61172V4.13867H21.3198L10.6895 14.769V17.6463Z" fill="white"/>
<path d="M25.172 13.1042V17.9318H34.1376V14.4835C34.1311 8.77289 29.5033 4.14516 23.7927 4.13867H23.103V10.4435C24.3173 10.757 25.1673 11.8502 25.172 13.1042V13.1042Z" fill="white"/>
<path d="M19.6547 13.1027C19.6594 11.8486 20.5094 10.7555 21.7237 10.442V8.56055L12.354 17.9302H15.2313L19.6547 13.5068V13.1027Z" fill="white"/>
<path d="M12.7585 4.13797C13.1394 4.13797 13.4482 3.82922 13.4482 3.44828V0.689688C13.4482 0.308828 13.1395 0 12.7585 0C12.3777 0 12.0688 0.30875 12.0688 0.689688V3.44828C12.0689 3.82914 12.3777 4.13797 12.7585 4.13797V4.13797Z" fill="white"/>
<path d="M9.51215 4.62508C9.78278 4.88641 10.2129 4.88274 10.4789 4.61664C10.745 4.35063 10.7487 3.92047 10.4874 3.64985L8.53637 1.69883C8.36325 1.51953 8.10676 1.44766 7.86567 1.51078C7.62457 1.57391 7.43621 1.76219 7.37309 2.00336C7.30996 2.24453 7.38184 2.50094 7.56114 2.67407L9.51215 4.62508Z" fill="white"/>
<path d="M6.5515 7.58641H9.3101C9.69096 7.58641 9.99979 7.27766 9.99979 6.89672C9.99979 6.51586 9.69104 6.20703 9.3101 6.20703H6.5515C6.17064 6.20703 5.86182 6.51578 5.86182 6.89672C5.86182 7.27766 6.17064 7.58641 6.5515 7.58641Z" fill="white"/>
</svg>
