<svg width="30" height="30" viewBox="0 0 30 30" fill="none" xmlns="http://www.w3.org/2000/svg">
<g clip-path="url(#clip0_110_4)">
<path d="M29.7423 7.71848L22.2814 0.257563C21.9379 -0.0858545 21.3815 -0.0858545 21.038 0.257563L17.0735 4.22208C16.7301 4.56549 16.7301 5.12196 17.0735 5.46543L24.5344 12.9264C24.7061 13.0981 24.9311 13.184 25.156 13.184C25.381 13.184 25.606 13.0981 25.7777 12.9264L29.7422 8.96184C30.0857 8.61836 30.0857 8.0619 29.7423 7.71848Z" fill="#767676"/>
<path d="M23.2912 14.1697L15.8303 6.70882C15.8194 6.69787 15.812 6.68445 15.8013 6.67343L7.39061 10.8785C7.1983 10.9747 7.04719 11.1387 6.96727 11.3388L0 28.7567L10.686 18.0707C10.5214 17.7268 10.4216 17.3466 10.4216 16.9406C10.4216 15.486 11.6048 14.3027 13.0594 14.3027C14.514 14.3027 15.6973 15.486 15.6973 16.9406C15.6973 18.3951 14.514 19.5784 13.0594 19.5784C12.6534 19.5784 12.2732 19.4786 11.9293 19.314L1.24336 30L18.6613 23.0329C18.8614 22.953 19.0254 22.8019 19.1216 22.6095L23.3267 14.1989C23.3156 14.1881 23.3022 14.1807 23.2912 14.1697Z" fill="#767676"/>
<path d="M13.0594 16.0614C12.5743 16.0614 12.1802 16.4555 12.1802 16.9406C12.1802 17.4257 12.5743 17.8199 13.0594 17.8199C13.5445 17.8199 13.9387 17.4257 13.9387 16.9406C13.9387 16.4555 13.5446 16.0614 13.0594 16.0614Z" fill="#767676"/>
</g>
<defs>
<clipPath id="clip0_110_4">
<rect width="30" height="30" fill="white"/>
</clipPath>
</defs>
</svg>
